<?xml version="1.0" encoding="UTF-8"?>
<svg xmlns="http://www.w3.org/2000/svg" viewBox="0 0 800 360" width="800" height="360" font-family="Helvetica, Arial, sans-serif">
<rect x="0" y="0" width="800" height="360" fill="white" stroke="black" stroke-width="1"/>
<!-- Bar plan view (top-down) -->
<rect x="64" y="150" width="485.2" height="60" fill="#fafafa" stroke="black" stroke-width="1.5"/>
<!-- Node holes (3/16 in centered on bar centerline) -->
<circle cx="172.8" cy="180.0" r="3.5" fill="white" stroke="black" stroke-width="1"/>
<circle cx="440.4" cy="180.0" r="3.5" fill="white" stroke="black" stroke-width="1"/>
<!-- Datum markers A, B -->
<circle cx="64" cy="230.0" r="9" fill="white" stroke="black" stroke-width="1.5"/>
<text x="64" y="234.0" font-size="11" text-anchor="middle" font-weight="bold">B</text>
<circle cx="549.2" cy="230.0" r="9" fill="white" stroke="black" stroke-width="1.5"/>
<text x="549.2" y="234.0" font-size="11" text-anchor="middle" font-weight="bold">E</text>
<!-- L dimension -->
<line x1="64" y1="288.0" x2="549.2" y2="288.0" stroke="black" stroke-width="1"/>
<line x1="64" y1="270.0" x2="64" y2="284.0" stroke="black" stroke-width="1"/>
<line x1="549.2" y1="270.0" x2="549.2" y2="284.0" stroke="black" stroke-width="1"/>
<text x="306.6" y="282.0" font-size="11" text-anchor="middle">L 9.883"</text>
<!-- Node 1 dimension (from B) -->
<line x1="64" y1="120.0" x2="172.8" y2="120.0" stroke="#666" stroke-width="0.7"/>
<text x="118.4" y="116.0" font-size="10" text-anchor="middle" fill="#444">node1 2.216"</text>
<!-- Node 2 dimension (from B) -->
<line x1="64" y1="136.0" x2="440.4" y2="136.0" stroke="#666" stroke-width="0.7"/>
<text x="252.2" y="132.0" font-size="10" text-anchor="middle" fill="#444">node2 7.667"</text>
<!-- Width annotation (left side) -->
<line x1="26" y1="150.0" x2="26" y2="210.0" stroke="black" stroke-width="1"/>
<line x1="44" y1="150.0" x2="30" y2="150.0" stroke="black" stroke-width="1"/>
<line x1="44" y1="210.0" x2="30" y2="210.0" stroke="black" stroke-width="1"/>
<text x="36" y="183.0" font-size="11">w 1.000"</text>
<!-- Notes above bar -->
<text x="64" y="48" font-size="14" font-weight="bold">Glockenspiel — GLK-C5</text>
<text x="64" y="68" font-size="11" fill="#444">free-free metal beam, suspended at nodes (0.2242·L); 6061-T6 Al; t = 0.250", w = 1.000"</text>
<text x="64" y="86" font-size="11" fill="#444">C5 = 523.251 Hz; node holes 0.1875" dia; cut long by 0.250" and trim to pitch</text>
<!-- Title block -->
<rect x="556" y="24" width="220" height="200" fill="white" stroke="black" stroke-width="1"/>
<line x1="556" y1="24" x2="776" y2="24" stroke="black" stroke-width="0.5"/>
<line x1="633" y1="24" x2="633" y2="49" stroke="black" stroke-width="0.5"/>
<text x="560" y="41.5" font-size="9" fill="#444">INSTRUMENT</text>
<text x="639" y="41.5" font-size="10" fill="black">Glockenspiel</text>
<line x1="556" y1="49" x2="776" y2="49" stroke="black" stroke-width="0.5"/>
<line x1="633" y1="49" x2="633" y2="74" stroke="black" stroke-width="0.5"/>
<text x="560" y="66.5" font-size="9" fill="#444">MEMBER</text>
<text x="639" y="66.5" font-size="10" fill="black">GLK-C5</text>
<line x1="556" y1="74" x2="776" y2="74" stroke="black" stroke-width="0.5"/>
<line x1="633" y1="74" x2="633" y2="99" stroke="black" stroke-width="0.5"/>
<text x="560" y="91.5" font-size="9" fill="#444">SCALE</text>
<text x="639" y="91.5" font-size="10" fill="black">illustrative</text>
<line x1="556" y1="99" x2="776" y2="99" stroke="black" stroke-width="0.5"/>
<line x1="633" y1="99" x2="633" y2="124" stroke="black" stroke-width="0.5"/>
<text x="560" y="116.5" font-size="9" fill="#444">UNITS</text>
<text x="639" y="116.5" font-size="10" fill="black">inches</text>
<line x1="556" y1="124" x2="776" y2="124" stroke="black" stroke-width="0.5"/>
<line x1="633" y1="124" x2="633" y2="149" stroke="black" stroke-width="0.5"/>
<text x="560" y="141.5" font-size="9" fill="#444">REV</text>
<text x="639" y="141.5" font-size="10" fill="black">v4.3</text>
<line x1="556" y1="149" x2="776" y2="149" stroke="black" stroke-width="0.5"/>
<line x1="633" y1="149" x2="633" y2="174" stroke="black" stroke-width="0.5"/>
<text x="560" y="166.5" font-size="9" fill="#444">DATE</text>
<text x="639" y="166.5" font-size="10" fill="black">2026-05-08</text>
<line x1="556" y1="174" x2="776" y2="174" stroke="black" stroke-width="0.5"/>
<line x1="633" y1="174" x2="633" y2="199" stroke="black" stroke-width="0.5"/>
<text x="560" y="191.5" font-size="9" fill="#444">AUTHOR</text>
<text x="639" y="191.5" font-size="10" fill="black">Tony Koop</text>
<line x1="556" y1="199" x2="776" y2="199" stroke="black" stroke-width="0.5"/>
<line x1="633" y1="199" x2="633" y2="224" stroke="black" stroke-width="0.5"/>
<text x="560" y="216.5" font-size="9" fill="#444">SHEET</text>
<text x="639" y="216.5" font-size="10" fill="black">1 / 1</text>
</svg>
